<svg id="Layer_1" data-name="Layer 1" xmlns="http://www.w3.org/2000/svg" viewBox="0 0 13.9 13.95"><title>facebook</title><path d="M9.61,13.94V8.57h1.66c.1,0,.14,0,.16-.13.08-.64.17-1.29.25-1.93a.34.34,0,0,0,0-.07H9.8c-.2,0-.2,0-.2-.2,0-.4,0-.8,0-1.2a.82.82,0,0,1,.94-.94h1.08c.11,0,.14,0,.14-.14q0-.82,0-1.64c0-.1,0-.14-.13-.14a18.67,18.67,0,0,0-1.91,0,2.35,2.35,0,0,0-2.26,2.1,14.71,14.71,0,0,0-.07,1.69,2.9,2.9,0,0,0,0,.35c0,.13,0,.17-.16.17H5.58s0,.08,0,.12c0,.62,0,1.24,0,1.86,0,.12,0,.15.15.15H7.38v5.37H.76a.8.8,0,0,1-.8-.81Q0,7,0,.81A.75.75,0,0,1,.77,0H13.08a.81.81,0,0,1,.82.83q0,6.15,0,12.29a.81.81,0,0,1-.83.83c-1.09,0-2.19,0-3.28,0Z" style="fill:#2f54b2"/></svg>