<svg id="Layer_1" data-name="Layer 1" xmlns="http://www.w3.org/2000/svg" viewBox="0 0 135.15 32.52"><title>logo</title><path d="M24.44,18.12l.88-.9a1.9,1.9,0,0,0,1.8,1.25,1.48,1.48,0,0,0,1.26-.61,5.49,5.49,0,0,0,.75-2.09l1.48-7.45H28.89l.91-1H34l-1,1H32l-1.26,6.33a6.45,6.45,0,0,1-1.48,3.22A3.44,3.44,0,0,1,26.62,19,3.24,3.24,0,0,1,24.44,18.12Z" style="fill:#ed1c24;stroke:red;stroke-miterlimit:10;stroke-width:0.1836228221654892px"/><path d="M37.93,15l-.12.6a3.83,3.83,0,0,1-2.54,1.52q-.93,0-.93-1A6.45,6.45,0,0,1,34.5,15l.45-2.25a8.67,8.67,0,0,0,.18-1.27q0-.54-.42-.54a4.46,4.46,0,0,0-1,.22l.08-.39,3.16-1-.49,2.07L35.78,15a6.76,6.76,0,0,0-.15,1q0,.42.38.42Q36.65,16.38,37.93,15ZM35.56,8.63,36,7.75l1.82-1.19-.56,1.19Z" style="fill:#ed1c24;stroke:red;stroke-miterlimit:10;stroke-width:0.1836228221654892px"/><path d="M38.93,17l.48-2L40,11.82a6.5,6.5,0,0,0,.15-1q0-.4-.38-.4-.63,0-1.92,1.42l.12-.59a3.81,3.81,0,0,1,2.54-1.52q.93,0,.93,1a6.66,6.66,0,0,1-.15,1.1L41,13.41h.1a9.64,9.64,0,0,1,1.82-2.66,2.85,2.85,0,0,1,1.89-1q1.06,0,1.06,1.17a4.87,4.87,0,0,1-.11.93L45.14,15A6.66,6.66,0,0,0,45,16q0,.41.38.41.65,0,1.93-1.42l-.12.6a3.81,3.81,0,0,1-2.54,1.52q-.93,0-.93-1a6.5,6.5,0,0,1,.15-1.1l.63-3.16a3.1,3.1,0,0,0,.08-.62q0-.52-.39-.52-1.23,0-3.42,3.91l-.47,2.3Z" style="fill:#ed1c24;stroke:red;stroke-miterlimit:10;stroke-width:0.1836228221654892px"/><path d="M48.6,16.81a1.57,1.57,0,0,1-.77-1.56,5.59,5.59,0,0,1,1.55-3.69,4.75,4.75,0,0,1,3.74-1.74q.43,0,1.8.08l-.46,1.91-.3,1.5q-.23,1.18-.32,1.74a16.38,16.38,0,0,1-.71,3.18A5,5,0,0,1,51.85,20a4.39,4.39,0,0,1-3.08,1.24,3.45,3.45,0,0,1-1.85-.44,1.32,1.32,0,0,1-.71-1.15Q46.22,18.2,48.6,16.81Zm4.26-3.4h-.1a7.81,7.81,0,0,1-1.64,2.44,3.71,3.71,0,0,1-2,1.08q-1.69,1.17-1.69,2.17a1.33,1.33,0,0,0,.63,1.1,2.54,2.54,0,0,0,1.53.46,2.15,2.15,0,0,0,1.82-.9,6.42,6.42,0,0,0,1-2.84Zm.51-2.56a3.47,3.47,0,0,0-1.54-.38,1.78,1.78,0,0,0-1.45.77A6,6,0,0,0,49.52,13a6.75,6.75,0,0,0-.38,2q0,.91.57.91,1.27,0,3.38-3.67Z" style="fill:#ed1c24;stroke:red;stroke-miterlimit:10;stroke-width:0.1836228221654892px"/><path d="M59.9,14.93l-.12.59a4.15,4.15,0,0,1-2.62,1.56q-.92,0-.92-1A5.93,5.93,0,0,1,56.38,15l.89-4.45A7,7,0,0,1,59,6.91a4.25,4.25,0,0,1,3.14-1.3,4.59,4.59,0,0,1,1.16.14l-.89.92a3.22,3.22,0,0,0-1.29-.34,1.75,1.75,0,0,0-1.54.75,8.33,8.33,0,0,0-.93,2.83l-1,5.1a6.47,6.47,0,0,0-.15,1q0,.41.38.41t1.67-1.15Z" style="fill:#ed1c24;stroke:red;stroke-miterlimit:10;stroke-width:0.1836228221654892px"/><path d="M66.15,15.15l-.1.5a6.52,6.52,0,0,1-3.5,1.43,1.9,1.9,0,0,1-1.49-.64,2.4,2.4,0,0,1-.57-1.66,5.14,5.14,0,0,1,1.39-3.42,4,4,0,0,1,3-1.6,1.2,1.2,0,0,1,.93.39,1.43,1.43,0,0,1,.36,1,2.57,2.57,0,0,1-1.27,2.13,5.12,5.12,0,0,1-3,.89v.29q0,1.89,1.38,1.89A5.48,5.48,0,0,0,66.15,15.15Zm-4.27-1.38A4.18,4.18,0,0,0,64.14,13,2,2,0,0,0,65,11.39q0-1-.72-1a2,2,0,0,0-1.5,1A4.87,4.87,0,0,0,61.88,13.77Z" style="fill:#ed1c24;stroke:red;stroke-miterlimit:10;stroke-width:0.1836228221654892px"/><path d="M66.8,16.7l.85-.87a2.86,2.86,0,0,0,1.71.61,1.44,1.44,0,0,0,.9-.28.84.84,0,0,0,.37-.69,2.22,2.22,0,0,0-.73-1.25l-.59-.65A2.64,2.64,0,0,1,68.46,12a2,2,0,0,1,.83-1.56,2.92,2.92,0,0,1,1.9-.68,4.18,4.18,0,0,1,1.32.25l-.28,1.43h-.41l0-.11a.63.63,0,0,0,0-.14q0-.87-1.12-.87t-1.26,1a2.39,2.39,0,0,0,.75,1.36l.53.59a2.75,2.75,0,0,1,.87,1.6,1.92,1.92,0,0,1-.92,1.54,3.42,3.42,0,0,1-2.09.68A5.07,5.07,0,0,1,66.8,16.7Z" style="fill:#ed1c24;stroke:red;stroke-miterlimit:10;stroke-width:0.1836228221654892px"/><path d="M79.21,16.92l1-1,.1,0h.37a1.19,1.19,0,0,0,1.06-.51,6.11,6.11,0,0,0,.64-2l1-5.18H81.73q-2.49,0-2.49,2a3.54,3.54,0,0,0,.06.57L78,11.48a4.53,4.53,0,0,1,1.65-3,5.33,5.33,0,0,1,3.46-1.11h2.74a7.79,7.79,0,0,0,2.45-.25A1.46,1.46,0,0,0,89.07,6l1-.39A3.77,3.77,0,0,1,88.3,7.58a5.77,5.77,0,0,1-2.93.74h-.65l-.9,4.5a5.3,5.3,0,0,1-.71,1.91,4.9,4.9,0,0,1-1.47,1.34l2.49.05-.9,1Z" style="fill:#ed1c24;stroke:red;stroke-miterlimit:10;stroke-width:0.1836228221654892px"/><path d="M88,17l.48-2,.63-3.15a4.24,4.24,0,0,0,.1-.83q0-.55-.39-.55-.68,0-2,1.46l.12-.57a4,4,0,0,1,2.59-1.61q.93,0,.93,1.06a5.31,5.31,0,0,1-.12,1L90,13.42h.08A9.12,9.12,0,0,1,92,10.78a2.93,2.93,0,0,1,1.92-1,1.6,1.6,0,0,1,.81.2l-.86,1.17a1.25,1.25,0,0,0-.65-.25q-1.26,0-3.35,3.7l-.47,2.35Z" style="fill:#ed1c24;stroke:red;stroke-miterlimit:10;stroke-width:0.1836228221654892px"/><path d="M100.56,15.15l-.1.5A6.52,6.52,0,0,1,97,17.08a1.9,1.9,0,0,1-1.49-.64,2.4,2.4,0,0,1-.57-1.66,5.14,5.14,0,0,1,1.39-3.42,4,4,0,0,1,3-1.6,1.2,1.2,0,0,1,.93.39,1.43,1.43,0,0,1,.36,1,2.57,2.57,0,0,1-1.27,2.13,5.12,5.12,0,0,1-3,.89v.29q0,1.89,1.38,1.89A5.48,5.48,0,0,0,100.56,15.15Zm-4.27-1.38A4.18,4.18,0,0,0,98.54,13a2,2,0,0,0,.81-1.63q0-1-.72-1a2,2,0,0,0-1.5,1A4.87,4.87,0,0,0,96.29,13.77Z" style="fill:#ed1c24;stroke:red;stroke-miterlimit:10;stroke-width:0.1836228221654892px"/><path d="M107.72,15.15l-.1.5a6.52,6.52,0,0,1-3.5,1.43,1.9,1.9,0,0,1-1.49-.64,2.4,2.4,0,0,1-.57-1.66,5.14,5.14,0,0,1,1.39-3.42,4,4,0,0,1,3-1.6,1.2,1.2,0,0,1,.93.39,1.43,1.43,0,0,1,.36,1,2.57,2.57,0,0,1-1.27,2.13,5.12,5.12,0,0,1-3,.89v.29q0,1.89,1.38,1.89A5.48,5.48,0,0,0,107.72,15.15Zm-4.27-1.38A4.18,4.18,0,0,0,105.7,13a2,2,0,0,0,.81-1.63q0-1-.72-1a2,2,0,0,0-1.5,1A4.87,4.87,0,0,0,103.44,13.77Z" style="fill:#ed1c24;stroke:red;stroke-miterlimit:10;stroke-width:0.1836228221654892px"/><path d="M108.37,16.7l.85-.87a2.86,2.86,0,0,0,1.71.61,1.44,1.44,0,0,0,.9-.28.85.85,0,0,0,.37-.69,2.22,2.22,0,0,0-.73-1.25l-.59-.65A2.64,2.64,0,0,1,110,12a2,2,0,0,1,.83-1.56,2.92,2.92,0,0,1,1.9-.68,4.18,4.18,0,0,1,1.32.25l-.28,1.43h-.41l0-.11a.63.63,0,0,0,0-.14q0-.87-1.12-.87t-1.26,1a2.39,2.39,0,0,0,.75,1.36l.53.59a2.75,2.75,0,0,1,.87,1.6,1.92,1.92,0,0,1-.92,1.54,3.42,3.42,0,0,1-2.09.68A5.07,5.07,0,0,1,108.37,16.7Z" style="fill:#ed1c24;stroke:red;stroke-miterlimit:10;stroke-width:0.1836228221654892px"/></svg>